HIERARCHY
ROOT boneTorso
{
	OFFSET 0.000000 -0.000000 0.798061
	CHANNELS 6 Xposition Yposition Zposition Xrotation Yrotation Zrotation
	JOINT boneHead
	{
		OFFSET 0.000000 0.000000 0.675000
		CHANNELS 3 Xrotation Yrotation Zrotation
		End Site
		{
			OFFSET 0.000000 -0.000000 0.500000
		}
	}
	JOINT boneLegRU
	{
		OFFSET 0.000000 0.125000 0.000000
		CHANNELS 6 Xposition Yposition Zposition Xrotation Yrotation Zrotation
		JOINT boneLegRD
		{
			OFFSET 0.000000 0.000000 -0.375000
			CHANNELS 3 Xrotation Yrotation Zrotation
			JOINT boneFootR
			{
				OFFSET 0.000000 0.000000 -0.375000
				CHANNELS 3 Xrotation Yrotation Zrotation
				End Site
				{
					OFFSET 0.000000 0.000000 -0.075000
				}
			}
		}
	}
	JOINT boneLegLU
	{
		OFFSET 0.000000 -0.125000 0.000000
		CHANNELS 6 Xposition Yposition Zposition Xrotation Yrotation Zrotation
		JOINT boneLegLD
		{
			OFFSET 0.000000 0.000000 -0.375000
			CHANNELS 3 Xrotation Yrotation Zrotation
			JOINT boneFootL
			{
				OFFSET 0.000000 0.000000 -0.375000
				CHANNELS 3 Xrotation Yrotation Zrotation
				End Site
				{
					OFFSET 0.000000 0.000000 -0.075000
				}
			}
		}
	}
	JOINT boneArmRU
	{
		OFFSET 0.000000 0.350000 0.675000
		CHANNELS 6 Xposition Yposition Zposition Xrotation Yrotation Zrotation
		JOINT boneArmRD
		{
			OFFSET 0.000000 0.000000 -0.375000
			CHANNELS 3 Xrotation Yrotation Zrotation
			End Site
			{
				OFFSET 0.000000 0.000000 -0.300000
			}
		}
	}
	JOINT boneArmLU
	{
		OFFSET 0.000000 -0.350000 0.675000
		CHANNELS 6 Xposition Yposition Zposition Xrotation Yrotation Zrotation
		JOINT boneArmLD
		{
			OFFSET 0.000000 0.000000 -0.375000
			CHANNELS 3 Xrotation Yrotation Zrotation
			End Site
			{
				OFFSET 0.000000 0.000000 -0.300000
			}
		}
		JOINT boneItemInHand
		{
			OFFSET 0.000000 0.000000 -0.673061
			CHANNELS 6 Xposition Yposition Zposition Xrotation Yrotation Zrotation
			End Site
			{
				OFFSET 0.000000 0.000000 -0.140000
			}
		}
	}
}
MOTION
Frames: 1
Frame Time: 0.016667
0.000000 -0.000000 0.798061 0.000000 0.000000 -0.000000 -0.000000 0.000000 -0.000000 -0.000000 0.125000 0.000000 0.000000 -0.000000 -0.000000 0.000000 -0.000000 -0.000000 -0.000000 0.000000 -0.000000 -0.000000 -0.125000 0.000000 -0.000000 0.000000 -0.000000 -0.000000 0.000000 0.000000 -0.000000 0.000000 -0.000000 -0.000000 0.350000 0.675000 -101.614883 -51.759416 -105.008851 -16.551585 5.954299 5.736670 0.000000 -0.350000 0.675000 -91.031935 -5.238332 -85.797899 10.877040 -0.830815 -0.117162 0.113675 0.136115 -0.677060 103.465160 85.582714 -18.665850 
